PathFileType	4	(X/Y/Z)	Patient4_TMGait_0pt3_01_right_24.trc.trc
DataRate	CameraRate	NumFrames	NumMarkers	Units	OrigDataRate	OrigDataStartFrame	OrigNumFrames
52.238805970149	52.238805970149	4	33	mm	52.238805970149	18	       141
Frame#	Time	Sacral			L.Shoulder			Chest			R.Shoulder			Neck			R.ASIS			L.ASIS			R.Thigh.Superior			R.Thigh.Lateral			R.Thigh.Inferior			R.Patella			L.Thigh.Superior			L.Thigh.Lateral			L.Thigh.Inferior			L.Patella			L.Shank.Superior			L.Shank.Lateral			L.Shank.Inferior			R.Shank.Superior			R.Shank.Lateral			R.Shank.Inferior			R.Heel			R.Midfoot.Superior			R.Midfoot.Lateral			R.Toe			L.Heel			L.Midfoot.Lateral			L.Midfoot.Superior			L.Toe			L.Elbow			L.Wrist			R.Elbow			R.Wrist			
		X1	Y1	Z1	X2	Y2	Z2	X3	Y3	Z3	X4	Y4	Z4	X5	Y5	Z5	X6	Y6	Z6	X7	Y7	Z7	X8	Y8	Z8	X9	Y9	Z9	X10	Y10	Z10	X11	Y11	Z11	X12	Y12	Z12	X13	Y13	Z13	X14	Y14	Z14	X15	Y15	Z15	X16	Y16	Z16	X17	Y17	Z17	X18	Y18	Z18	X19	Y19	Z19	X20	Y20	Z20	X21	Y21	Z21	X22	Y22	Z22	X23	Y23	Z23	X24	Y24	Z24	X25	Y25	Z25	X26	Y26	Z26	X27	Y27	Z27	X28	Y28	Z28	X29	Y29	Z29	X30	Y30	Z30	X31	Y31	Z31	X32	Y32	Z32	X33	Y33	Z33	

18	44.355428571429	765.415564956723	1017.730266960795	419.675934488473	1018.618282236494	1442.251735775083	298.446506074351	1066.561678521195	1363.422745738159	477.770314694581	942.266759954884	1440.296613905695	623.461338892499	962.881862342552	1499.528528025205	450.922138304514	963.904410210972	953.137637037907	586.802265764734	1008.154844801268	961.671119890687	315.161016928977	1033.822457775850	771.339154691346	565.668147758940	974.095918674057	655.265947533753	632.214977241260	1062.576084961517	607.526649470325	559.360202806125	1084.655754615919	517.535259980974	582.560709213311	1023.235249838906	736.750548283726	358.961636482486	932.615452367088	625.296263592770	289.249066181470	995.321989197431	543.900007517248	370.090734217036	986.280554897606	473.555041191210	379.428948345499	945.899042941299	405.681076582802	367.647356055947	842.643426457738	305.787834776292	313.832858732123	868.633976256720	189.642382698695	389.182026064091	1048.264607891876	430.542436774640	592.886281661386	966.464130215273	336.168029898296	655.858574625896	1014.633559927679	234.850648923959	609.565039845158	882.695037801164	67.102924974101	582.364230621107	1051.684707858088	119.066319588153	627.194323813712	963.774001364442	54.490009384731	658.347477113387	1169.419624154011	68.475556486483	657.623168577453	717.424047544974	46.830551306817	428.336611058205	791.623639506953	39.796348194153	349.169327125861	878.129667113473	97.244261850838	375.530574387239	1002.999586605801	38.544812054184	345.578287812923	1150.237037847611	1152.080345122525	135.827765065671	1400.181904414689	1092.634947334538	177.727328180155	761.238076949777	1132.758235047603	685.008685877683	717.921563966652	874.860055961387	691.085068514932	
19	44.374571428571	764.961871283039	1016.879812660421	420.461636389518	1019.441705716279	1441.384881352214	301.676933976351	1065.090805905442	1362.744140105459	481.619875578598	939.228665649100	1440.037784192459	625.610865526731	961.785950475142	1498.822421066159	453.384105690255	961.591481956051	952.531296114085	590.030860340583	1008.727204744834	960.643627983771	318.749459393353	1029.924661357944	768.940173332118	569.914203667113	967.873264915300	653.436380130923	635.224286753953	1056.269590811515	605.498837904507	562.680291355071	1078.592273438439	518.297589987325	584.355056154245	1020.796958806810	735.098857159457	362.424950237554	929.466137670872	624.830020480028	290.746163929774	990.183083279537	542.521712184335	371.819062835968	980.038212069499	472.513633680967	380.787469698207	939.995678925112	404.891957351340	368.692357944982	836.838132900866	305.117148032265	314.362023375011	862.509970745215	188.899149026186	389.719141847815	1047.519931216259	430.325143824507	595.026881885982	972.133859615384	330.721362718666	659.439251094097	1025.818473978118	232.054026245398	612.294230475911	902.655209323175	57.333152958033	587.307318473078	1070.287144380684	116.716973872258	628.749855203666	986.014393071306	47.666105521080	661.445914868972	1191.591551385976	71.419908605902	656.597689224107	711.440902776433	45.798953093148	428.321789982947	785.639785808399	39.252045262054	349.165694938096	871.955994697135	96.950704782638	375.793459868717	997.094371336451	38.697930079790	345.720098710430	1157.350776726768	1155.387352832746	139.579107572278	1409.303495496970	1109.218576086002	184.395155259049	754.537801806241	1135.106495245468	685.241133797569	712.150412160380	876.919207402857	691.401082545216	
20	44.393714285714	764.670580735248	1015.195227788577	421.692565698441	1019.815116128847	1439.918788866954	305.168684960665	1063.534152214827	1361.524172081223	485.645377815176	936.212763899219	1439.046190693034	628.140252306824	960.507903318481	1497.494208390530	456.164448391113	959.658284992571	951.158375852731	593.447737259144	1009.412441943819	959.058423885268	322.527462236758	1026.739522839545	766.001750038631	574.352264562819	962.476514598013	650.883919752640	638.216373512041	1051.105054577054	603.020037470657	566.126716987569	1073.233082636202	518.080722727094	586.215604223906	1018.761912945248	733.070680123858	365.939660153802	926.759101179574	623.929198009838	292.425774249090	985.590913745989	540.778724605291	373.640475252488	974.373105423924	471.053719065743	382.267218737826	934.551876853779	403.661151721752	369.878944193567	831.328585816324	304.174344239714	314.994229806993	856.470121135373	187.853951430414	390.349682435016	1046.677391094999	429.360840281404	597.129176372820	976.617212270079	325.750766602032	662.524469579339	1034.660251634836	229.475708674626	614.649105820143	918.701581243608	50.033424526206	591.346754717149	1085.121635403755	114.686998752061	630.010798313665	1003.711952438596	42.561228707757	663.948858460196	1208.849423559087	73.263367422701	655.648101492428	705.408845756560	44.524014813856	428.332047990251	779.614632315587	38.579484969191	349.165081687048	865.693461271542	96.581768473378	376.117429470920	991.166778062170	38.871691636607	345.885812545279	1163.864050407166	1158.011839968795	143.658609244880	1417.155791846331	1124.531413927825	190.901027627702	749.260787368709	1135.823912199998	685.908894351423	708.505396820744	877.186090885085	692.345360707784	
21	44.412857142857	764.566917261170	1012.880865844492	423.374298093556	1019.791420100072	1438.037256490040	308.965245569968	1061.938423985333	1359.934471436628	489.898845821163	933.245866896372	1437.489250410283	631.102151924444	959.081712145993	1495.716017305969	459.321958201883	958.144014263924	949.192993504831	597.062060454955	1010.230807826428	957.116276849273	326.489839955186	1024.431724100938	762.845596189669	578.848234259464	958.191506395621	647.849192523761	641.079838035299	1047.390688998389	600.372917756608	569.601512559876	1068.937582264926	517.060151997412	588.110151186893	1017.122393656560	730.793308006263	369.423573769148	924.416030824516	622.746903798370	294.265358866980	981.486212897305	538.800268441021	375.509888772084	969.233418264918	469.309260003394	383.818197923377	929.511568228625	402.140410576470	371.150745096730	826.059911280080	303.100244905454	315.694210477834	850.519996588914	186.635613057296	391.017832435139	1045.944973297450	427.761560239544	599.129553924325	979.895663110873	321.332111923592	665.023347616802	1041.071582134719	227.033491390279	616.534186957364	930.418529996355	44.988743232113	594.321448924641	1095.955578204935	112.825508730388	630.923372173054	1016.467517763436	38.999624938923	665.807835641853	1221.050861843489	73.794148780150	654.873174282989	699.346654741326	43.147271570713	428.349203332686	773.569340170616	37.847962362229	349.155494521859	859.387502047942	96.181568788780	376.457834118396	985.229239251535	39.045471637015	346.059766557376	1169.656030067360	1159.999264039920	148.085172376421	1423.725331069417	1138.421904597932	197.211544502594	745.420713233400	1135.032675864930	687.057837889022	706.811302881608	875.846296914965	693.870861245120	
